<svg width="400" height="100" viewBox="0 0 96 24" fill="none" xmlns="http://www.w3.org/2000/svg">
<g fill="#2ecc71">
<rect x="6" y="3" width="10" height="1"/><rect x="5" y="4" width="12" height="1"/><rect x="4" y="5" width="14" height="1"/><rect x="4" y="6" width="1" height="14"/><rect x="18" y="5" width="1" height="16"/><rect x="5" y="20" width="12" height="1"/><rect x="6" y="21" width="10" height="1"/><rect x="15" y="6" width="3" height="2"/><rect x="17" y="8" width="2" height="3"/><rect x="18" y="11" width="2" height="7"/><rect x="17" y="18" width="2" height="2"/><rect x="19" y="6" width="1" height="1"/><rect x="19" y="20" width="1" height="1"/><rect x="2" y="8" width="2" height="10"/><rect x="1" y="9" width="1" height="8"/>

<rect x="26" y="9" width="1" height="7"/><rect x="27" y="8" width="3" height="1"/><rect x="30" y="9" width="1" height="1"/><rect x="27" y="16" width="3" height="1"/><rect x="30" y="13" width="1" height="3"/><rect x="28" y="13" width="2" height="1"/>
<rect x="32" y="11" width="1" height="5"/><rect x="33" y="10" width="2" height="1"/><rect x="33" y="13" width="2" height="1"/><rect x="33" y="16" width="3" height="1"/><rect x="35" y="11" width="1" height="2"/>
<rect x="37" y="11" width="1" height="5"/><rect x="38" y="10" width="2" height="1"/><rect x="38" y="13" width="2" height="1"/><rect x="38" y="16" width="2" height="1"/><rect x="40" y="11" width="1" height="6"/>
<rect x="42" y="11" width="1" height="6"/><rect x="43" y="12" width="1" height="1"/><rect x="44" y="11" width="1" height="1"/>
<rect x="47" y="13" width="3" height="1"/>
<rect x="52" y="8" width="1" height="9"/><rect x="53" y="8" width="3" height="1"/><rect x="56" y="9" width="1" height="3"/><rect x="53" y="12" width="3" height="1"/>
<rect x="59" y="11" width="1" height="5"/><rect x="60" y="10" width="2" height="1"/><rect x="60" y="13" width="2" height="1"/><rect x="60" y="16" width="2" height="1"/><rect x="62" y="11" width="1" height="6"/>
<rect x="65" y="11" width="1" height="5"/><rect x="66" y="10" width="2" height="1"/><rect x="66" y="16" width="2" height="1"/><rect x="68" y="11" width="1" height="1"/><rect x="68" y="15" width="1" height="1"/>
<rect x="70" y="8" width="1" height="9"/><rect x="73" y="11" width="1" height="3"/><rect x="72" y="13" width="1" height="1"/><rect x="71" y="14" width="1" height="1"/><rect x="72" y="15" width="1" height="1"/><rect x="73" y="16" width="1" height="1"/>
</g>
</svg>