<svg width="512" height="512" viewBox="0 0 24 24" fill="none" xmlns="http://www.w3.org/2000/svg">
<g fill="#2ecc71">
<rect x="6" y="3" width="10" height="1"/>
<rect x="5" y="4" width="12" height="1"/>
<rect x="4" y="5" width="14" height="1"/>
<rect x="4" y="6" width="1" height="14"/>
<rect x="18" y="5" width="1" height="16"/>
<rect x="5" y="20" width="12" height="1"/>
<rect x="6" y="21" width="10" height="1"/>
<rect x="15" y="6" width="3" height="2"/>
<rect x="17" y="8" width="2" height="3"/>
<rect x="18" y="11" width="2" height="7"/>
<rect x="17" y="18" width="2" height="2"/>
<rect x="19" y="6" width="1" height="1"/>
<rect x="19" y="20" width="1" height="1"/>
<rect x="2" y="8" width="2" height="10"/>
<rect x="1" y="9" width="1" height="8"/>
</g>
</svg>